# Blender v2.90.1 OBJ File: 'microwave.blend'
# www.blender.org
mtllib microwave.mtl
o Cube
v 2.962397 2.624956 -1.440350
v 2.734427 0.000000 -1.853389
v 2.734427 0.000000 1.407470
v -3.056760 2.678725 -1.533614
v -2.734427 0.000000 -1.853389
v -3.056760 2.678725 1.087695
v -2.734427 0.000000 1.407470
v 2.962397 2.624956 1.342946
v 1.781018 0.219517 1.680309
v -2.313496 2.570575 1.654310
v -2.313496 0.427925 1.654310
v 0.898691 2.570575 1.654310
v 0.898691 0.427925 1.654310
v -2.734427 0.000000 1.755985
v -2.734427 2.998500 1.755985
v 1.472546 2.843035 1.691783
v 1.535552 0.219517 1.680309
v -2.384074 0.356174 1.755985
v -2.384074 2.642326 1.755985
v 0.969269 2.642326 1.755985
v 0.969269 0.356174 1.755985
v 2.962397 0.933466 -1.440350
v -3.056760 0.879697 1.087695
v -3.056760 0.879697 -1.533614
v 1.781018 0.340406 1.680309
v 1.535552 0.340406 1.680309
v 2.962397 0.933466 1.342946
v 2.734427 0.000000 1.755985
v 1.319623 0.000000 1.755985
v 1.319623 0.559923 1.755985
v 1.845432 0.405890 1.755985
v 1.845432 0.154032 1.755985
v 1.471138 0.154032 1.755985
v 1.471138 0.405890 1.755985
v 2.734427 2.998500 -1.853389
v 2.581504 2.843035 1.691783
v 2.734427 0.559923 -1.853389
v 2.734427 0.559923 1.755985
v 2.734427 0.559923 1.407470
v 2.734427 2.760105 -1.614995
v 2.734427 2.760105 1.517591
v 2.734427 0.798317 -1.614995
v 2.734427 0.798317 1.517591
v -2.734427 0.559923 1.407470
v -2.734427 2.998500 1.407470
v -2.734427 2.998500 -1.853389
v -2.734427 0.559923 -1.853389
v -2.734427 0.713740 1.253652
v -2.734427 2.844682 1.253652
v -2.734427 2.844682 -1.699571
v -2.734427 0.713740 -1.699571
v 2.581504 2.472273 1.691783
v 1.472546 2.472273 1.691783
v 2.734427 2.998500 1.755985
v 1.319623 2.998500 1.755985
v 2.734427 2.316808 1.755985
v 1.319623 2.316808 1.755985
vt 0.245741 0.835730
vt 0.245741 0.999531
vt 0.007070 0.999531
vt 0.007070 0.835730
vt 0.993127 0.434965
vt 0.993127 0.449952
vt 0.931275 0.449952
vt 0.754042 0.449952
vt 0.754042 0.434965
vt 0.754042 0.294738
vt 0.993127 0.294738
vt 0.147379 0.036492
vt 0.119276 0.062176
vt 0.119276 0.008389
vt 0.147379 0.216875
vt 0.119276 0.244978
vt 0.119276 0.200798
vt 0.582991 0.903441
vt 0.596496 0.910414
vt 0.467212 0.983943
vt 0.468123 0.968772
vt 0.420330 0.032523
vt 0.151348 0.032523
vt 0.123245 0.004420
vt 0.448433 0.004421
vt 0.416362 0.216875
vt 0.444465 0.244978
vt 0.420330 0.034111
vt 0.448433 0.006008
vt 0.448433 0.242597
vt 0.420330 0.214494
vt 0.037812 0.397646
vt 0.037812 0.270608
vt 0.231428 0.270608
vt 0.231428 0.397646
vt 0.203321 0.188104
vt 0.289053 0.191625
vt 0.290803 0.194970
vt 0.201304 0.191293
vt 0.222886 0.065674
vt 0.177139 0.138264
vt 0.173368 0.138116
vt 0.221125 0.062335
vt 0.297692 0.255885
vt 0.297692 0.246347
vt 0.317382 0.246347
vt 0.317382 0.255885
vt 0.989112 0.541605
vt 0.939478 0.541605
vt 0.939478 0.510711
vt 0.989112 0.510711
vt 0.989112 0.830663
vt 0.939478 0.830663
vt 0.310271 0.551276
vt 0.310271 0.602257
vt 0.013370 0.602257
vt 0.013370 0.551276
vt 0.077099 0.212952
vt 0.077099 0.232824
vt 0.005790 0.244978
vt 0.005790 0.200798
vt 0.107123 0.232824
vt 0.107123 0.212952
vt 0.366095 0.063282
vt 0.355467 0.059997
vt 0.352430 0.049418
vt 0.374573 0.056264
vt 0.340468 0.077385
vt 0.329558 0.075932
vt 0.345277 0.087416
vt 0.339578 0.096831
vt 0.368227 0.086609
vt 0.374573 0.095601
vt 0.728350 1.002892
vt 0.728350 0.842102
vt 0.992925 0.842102
vt 0.992925 1.002892
vt 0.918346 0.531843
vt 0.744443 0.809531
vt 0.918345 0.809531
vt 0.723311 0.830663
vt 0.744443 0.531843
vt 0.723311 0.510711
vt 0.783739 0.510711
vt 0.447083 0.748235
vt 0.381722 0.794897
vt 0.368494 0.787412
vt 0.444300 0.733294
vt 0.388664 0.936867
vt 0.459303 0.975072
vt 0.458393 0.990243
vt 0.376465 0.945933
vt 0.296266 0.810285
vt 0.296266 0.616262
vt 0.310271 0.824290
vt 0.027375 0.810286
vt 0.013370 0.824291
vt 0.027375 0.616262
vt 0.427932 0.310220
vt 0.360883 0.412439
vt 0.333827 0.408179
vt 0.413247 0.287100
vt 0.517949 0.637795
vt 0.682366 0.569284
vt 0.702376 0.587985
vt 0.517140 0.665172
vt 0.408081 0.584193
vt 0.387002 0.601681
vt 0.269026 0.256180
vt 0.294926 0.256180
vt 0.294926 0.334936
vt 0.269026 0.334936
vt 0.005790 0.062176
vt 0.629234 0.167854
vt 0.501894 0.157817
vt 0.485832 0.137435
vt 0.648291 0.150239
vt 0.495313 0.178409
vt 0.501894 0.219898
vt 0.485832 0.240280
vt 0.473732 0.163997
vt 0.629234 0.209862
vt 0.648291 0.227476
vt 0.993127 0.270660
vt 0.754042 0.270660
vt 0.931275 0.010579
vt 0.754042 0.025567
vt 0.754042 0.010579
vt 0.237725 0.062473
vt 0.235964 0.059135
vt 0.295990 0.061391
vt 0.293983 0.064588
vt 0.389924 0.926788
vt 0.377725 0.935854
vt 0.993127 0.165794
vt 0.754042 0.165793
vt 0.231201 0.692972
vt 0.231201 0.641991
vt 0.262934 0.641991
vt 0.993127 0.010579
vt 0.342004 0.824290
vn -1.0000 0.0000 0.0000
vn 0.0000 -1.0000 0.0000
vn 0.0000 0.0000 1.0000
vn 0.5100 0.8602 0.0000
vn 0.0000 -0.8170 0.5766
vn 0.0000 0.8170 0.5766
vn 0.8215 0.0000 0.5702
vn 1.0000 0.0000 0.0000
vn -0.7615 0.0000 0.6482
vn 0.0000 0.7562 0.6544
vn 0.7615 0.0000 0.6482
vn 0.0000 -0.7562 0.6544
vn 0.6081 0.0000 -0.7938
vn 0.6081 0.0000 0.7938
vn -0.4578 0.0000 0.8891
vn -0.4578 0.8891 0.0000
vn -0.4578 0.0000 -0.8891
vn -0.4578 -0.8891 0.0000
vn 0.0000 -0.3817 0.9243
vn -0.3871 0.0000 0.9220
vn 0.3871 0.0000 0.9220
vn 0.0000 0.3817 0.9243
vn 0.0000 0.0000 -1.0000
vn 0.0000 1.0000 0.0000
vn -0.8215 0.0000 0.5702
vn 0.5100 -0.8602 0.0000
usemtl Material
s off
f 23/1/1 6/2/1 4/3/1 24/4/1
f 3/5/2 28/6/2 29/7/2 14/8/2 7/9/2 5/10/2 2/11/2
f 20/12/3 57/13/3 55/14/3
f 21/15/3 29/16/3 30/17/3
f 1/18/4 40/19/4 41/20/4 8/21/4
f 19/22/3 20/23/3 55/24/3 15/25/3
f 21/15/3 18/26/3 14/27/3 29/16/3
f 19/28/3 15/29/3 14/30/3 18/31/3
f 13/32/3 12/33/3 10/34/3 11/35/3
f 10/36/5 12/37/5 20/38/5 19/39/5
f 13/40/6 11/41/6 18/42/6 21/43/6
f 10/36/7 19/39/7 18/42/7 11/41/7
f 9/44/3 25/45/3 26/46/3 17/47/3
f 20/12/3 21/15/3 30/17/3 57/13/3
f 3/48/8 39/49/8 38/50/8 28/51/8
f 2/52/8 37/53/8 39/49/8 3/48/8
f 7/54/1 44/55/1 47/56/1 5/57/1
f 31/58/3 32/59/3 28/60/3 38/61/3
f 32/59/3 33/62/3 29/16/3 28/60/3
f 33/62/3 34/63/3 30/17/3 29/16/3
f 34/63/3 31/58/3 38/61/3 30/17/3
f 25/64/9 9/65/9 32/66/9 31/67/9
f 9/65/10 17/68/10 33/69/10 32/66/10
f 17/68/11 26/70/11 34/71/11 33/69/11
f 26/70/12 25/72/12 31/73/12 34/71/12
f 22/74/8 1/75/8 8/76/8 27/77/8
f 43/78/8 38/50/8 39/49/8
f 40/79/8 42/80/8 37/53/8 35/81/8
f 41/82/8 54/83/8 56/84/8
f 40/79/8 35/81/8 54/83/8 41/82/8
f 1/85/13 22/86/13 42/87/13 40/88/13
f 27/89/14 8/90/14 41/91/14 43/92/14
f 49/93/1 48/94/1 44/55/1 45/95/1
f 50/96/1 49/93/1 45/95/1 46/97/1
f 51/98/1 50/96/1 46/97/1 47/56/1
f 48/94/1 51/98/1 47/56/1 44/55/1
f 6/99/15 23/100/15 48/101/15 49/102/15
f 4/103/16 6/104/16 49/105/16 50/106/16
f 24/107/17 4/103/17 50/106/17 51/108/17
f 23/100/18 24/107/18 51/108/18 48/101/18
f 16/109/3 53/110/3 52/111/3 36/112/3
f 57/13/3 30/17/3 38/61/3 56/113/3
f 16/114/19 36/115/19 54/116/19 55/117/19
f 36/118/20 52/119/20 56/120/20 54/121/20
f 53/122/21 16/114/21 55/117/21 57/123/21
f 52/119/22 53/122/22 57/123/22 56/120/22
f 37/124/23 2/11/23 5/10/23 47/125/23
f 55/126/24 45/127/24 15/128/24
f 13/129/25 21/130/25 20/131/25 12/132/25
f 27/133/26 43/134/26 42/87/26 22/86/26
f 35/135/23 37/124/23 47/125/23 46/136/23
f 44/137/1 7/138/1 14/139/1
f 54/140/24 35/135/24 55/126/24
f 45/95/1 44/137/1 14/139/1 15/141/1
f 35/135/24 46/136/24 45/127/24 55/126/24
f 42/80/8 43/78/8 39/49/8 37/53/8
f 43/78/8 41/82/8 56/84/8 38/50/8
