# Blender v2.90.1 OBJ File: 'water.blend'
# www.blender.org
mtllib seeds.mtl
o Plane
v 0.048169 0.667652 -0.033081
v -0.054653 0.667652 -0.033081
v 0.048169 0.402971 0.013589
v -0.054653 0.402971 0.013589
v -0.122850 0.639677 -0.028148
v -0.122850 0.430947 0.008656
v -0.165151 0.577267 -0.017144
v -0.165151 0.493356 -0.002348
v 0.105219 0.625093 -0.025577
v 0.105219 0.445530 0.006085
v 0.156173 0.579748 -0.017582
v 0.156173 0.490875 -0.001911
v 0.183238 0.555728 -0.013346
v 0.183238 0.514895 -0.006146
v 0.046246 0.414722 0.024523
v 0.046245 0.660349 -0.018787
v -0.049174 0.660349 -0.018787
v -0.049174 0.414722 0.024523
v -0.112462 0.634388 -0.014210
v -0.112462 0.440684 0.019946
v -0.151718 0.576471 -0.003997
v -0.151718 0.498601 0.009733
v 0.099188 0.454218 0.017559
v 0.099188 0.620854 -0.011823
v 0.146474 0.496298 0.010139
v 0.146474 0.578774 -0.004403
v 0.171591 0.518589 0.006209
v 0.171591 0.556482 -0.000473
v 0.044756 0.423007 0.028369
v 0.044756 0.653879 -0.012340
v -0.044932 0.653879 -0.012340
v -0.044932 0.423007 0.028369
v -0.104418 0.629477 -0.008038
v -0.104418 0.447409 0.024066
v -0.141316 0.575039 0.001561
v -0.141316 0.501847 0.014467
v 0.094519 0.460130 0.021823
v 0.094519 0.616756 -0.005795
v 0.138964 0.499682 0.014849
v 0.138964 0.577204 0.001180
v 0.162572 0.520635 0.011154
v 0.162572 0.556252 0.004874
v 0.039520 0.450181 0.030825
v 0.039520 0.629184 -0.000738
v -0.030018 0.629184 -0.000738
v -0.030018 0.450181 0.030825
v -0.076140 0.610265 0.002598
v -0.076140 0.469101 0.027489
v -0.104748 0.568057 0.010041
v -0.104748 0.511309 0.020047
v 0.078102 0.478964 0.025750
v 0.078102 0.600402 0.004338
v 0.112563 0.509630 0.020343
v 0.112563 0.569735 0.009745
v 0.130867 0.525875 0.017479
v 0.130867 0.553490 0.012609
v 0.034329 0.476905 0.032048
v 0.034329 0.604490 0.009552
v -0.015234 0.604490 0.009552
v -0.015234 0.476905 0.032048
v -0.048108 0.591005 0.011929
v -0.048108 0.490390 0.029670
v -0.068498 0.560921 0.017234
v -0.068498 0.520474 0.024366
v 0.061829 0.497420 0.028431
v 0.061829 0.583975 0.013169
v 0.086390 0.519278 0.024577
v 0.086390 0.562118 0.017023
v 0.099437 0.530856 0.022535
v 0.099437 0.550539 0.019065
v 0.028464 0.507062 0.033208
v 0.028464 0.576548 0.020956
v 0.001470 0.576548 0.020956
v 0.001471 0.507062 0.033208
v -0.016433 0.569204 0.022251
v -0.016433 0.514407 0.031913
v -0.027538 0.552820 0.025140
v -0.027538 0.530791 0.029024
v 0.043441 0.518235 0.031238
v 0.043441 0.565375 0.022926
v 0.056818 0.530140 0.029139
v 0.056818 0.553471 0.025025
v 0.063923 0.536446 0.028027
v 0.063923 0.547165 0.026137
v 0.025474 0.522523 0.034303
v 0.025474 0.562395 0.027272
v 0.009985 0.562395 0.027272
v 0.009985 0.522523 0.034303
v -0.000288 0.558181 0.028016
v -0.000288 0.526737 0.033560
v -0.006661 0.548779 0.029673
v -0.006661 0.536139 0.031902
v 0.034069 0.528934 0.033173
v 0.034069 0.555984 0.028403
v 0.041744 0.535765 0.031968
v 0.041744 0.549153 0.029607
v 0.045822 0.539383 0.031330
v 0.045822 0.545534 0.030245
v 0.044862 0.418138 0.003812
v 0.044862 0.650056 -0.037082
v -0.045232 0.650056 -0.037082
v -0.045232 0.418138 0.003812
v -0.104988 0.625543 -0.032760
v -0.104988 0.442651 -0.000511
v -0.142053 0.570859 -0.023117
v -0.142053 0.497335 -0.010153
v 0.094849 0.455429 -0.002764
v 0.094849 0.612764 -0.030506
v 0.139496 0.495161 -0.009770
v 0.139496 0.573033 -0.023501
v 0.163211 0.516208 -0.013481
v 0.163211 0.551986 -0.019790
v 0.038335 0.449538 -0.007146
v 0.038335 0.616802 -0.036639
v -0.026643 0.616802 -0.036639
v -0.026643 0.449538 -0.007146
v -0.069740 0.599123 -0.033522
v -0.069740 0.467217 -0.010263
v -0.096472 0.559683 -0.026567
v -0.096472 0.506657 -0.017217
v 0.074387 0.476433 -0.011888
v 0.074387 0.589907 -0.031897
v 0.106587 0.505088 -0.016941
v 0.106587 0.561252 -0.026844
v 0.123691 0.520268 -0.019617
v 0.123691 0.546072 -0.024167
v 0.032159 0.479385 -0.016724
v 0.032159 0.585479 -0.035431
v -0.009055 0.585479 -0.035431
v -0.009055 0.479385 -0.016724
v -0.036391 0.574265 -0.033454
v -0.036391 0.490599 -0.018701
v -0.053347 0.549249 -0.029043
v -0.053347 0.515615 -0.023112
v 0.055027 0.496445 -0.019732
v 0.055027 0.568419 -0.032423
v 0.075451 0.514620 -0.022937
v 0.075451 0.550244 -0.029218
v 0.086300 0.524248 -0.024635
v 0.086300 0.540615 -0.027521
v 0.024541 0.516382 -0.027544
v 0.024541 0.547013 -0.032945
v 0.012642 0.547013 -0.032945
v 0.012642 0.516382 -0.027544
v 0.004750 0.543775 -0.032374
v 0.004750 0.519619 -0.028115
v -0.000146 0.536552 -0.031101
v -0.000146 0.526842 -0.029389
v 0.031144 0.521307 -0.028413
v 0.031144 0.542087 -0.032077
v 0.037041 0.526555 -0.029338
v 0.037041 0.536840 -0.031151
v 0.040173 0.529334 -0.029828
v 0.040173 0.534060 -0.030661
vt 0.263829 0.909345
vt 0.133169 0.768049
vt 0.167932 0.736174
vt 0.281622 0.859351
vt 0.264720 0.011875
vt 0.502823 0.009506
vt 0.487983 0.076970
vt 0.280957 0.078801
vt 0.648985 0.763263
vt 0.521002 0.906979
vt 0.502263 0.857356
vt 0.613627 0.732041
vt 0.681433 0.126067
vt 0.763323 0.315670
vt 0.713603 0.343092
vt 0.642839 0.178360
vt 0.010507 0.322787
vt 0.088712 0.131787
vt 0.128283 0.183267
vt 0.060713 0.349250
vt 0.013321 0.608429
vt 0.063358 0.597731
vt 0.121866 0.170111
vt 0.279867 0.062697
vt 0.287627 0.094417
vt 0.140936 0.194153
vt 0.441505 0.934752
vt 0.340050 0.934571
vt 0.343688 0.906940
vt 0.437476 0.907077
vt 0.050866 0.594248
vt 0.049631 0.340301
vt 0.074232 0.352503
vt 0.075303 0.589214
vt 0.494048 0.062189
vt 0.653560 0.167905
vt 0.634675 0.192174
vt 0.486652 0.093933
vt 0.626984 0.740604
vt 0.507935 0.871753
vt 0.498131 0.847232
vt 0.608770 0.725023
vt 0.771887 0.601640
vt 0.661048 0.768865
vt 0.727752 0.591891
vt 0.686670 0.128548
vt 0.770683 0.318794
vt 0.727244 0.337773
vt 0.006112 0.321665
vt 0.088510 0.131171
vt 0.251638 0.914550
vt 0.118747 0.770755
vt 0.152620 0.742257
vt 0.272680 0.872536
vt 0.266842 0.011858
vt 0.506347 0.010366
vt 0.529239 0.913478
vt 0.006818 0.604291
vt 0.450541 0.981891
vt 0.331910 0.983176
vt 0.464325 0.193554
vt 0.311141 0.194023
vt 0.282257 0.847921
vt 0.170725 0.726548
vt 0.222346 0.680458
vt 0.306941 0.773180
vt 0.197790 0.270542
vt 0.146953 0.392714
vt 0.702707 0.350171
vt 0.630216 0.390958
vt 0.578393 0.269111
vt 0.703271 0.587024
vt 0.556832 0.679293
vt 0.631543 0.574286
vt 0.146916 0.575979
vt 0.217399 0.432052
vt 0.217294 0.562474
vt 0.523316 0.344433
vt 0.442423 0.290900
vt 0.472922 0.772596
vt 0.448272 0.700814
vt 0.507249 0.635045
vt 0.333880 0.291226
vt 0.271613 0.635864
vt 0.331069 0.701227
vt 0.253442 0.345395
vt 0.352571 0.821401
vt 0.427636 0.821095
vt 0.359281 0.400110
vt 0.315800 0.429363
vt 0.416568 0.735483
vt 0.363027 0.735673
vt 0.375033 0.639650
vt 0.403863 0.639563
vt 0.296304 0.476234
vt 0.296405 0.546806
vt 0.461605 0.428876
vt 0.417899 0.399939
vt 0.420917 0.620936
vt 0.452528 0.585732
vt 0.561054 0.561277
vt 0.560026 0.430838
vt 0.397348 0.591278
vt 0.406886 0.580652
vt 0.481438 0.475608
vt 0.481820 0.546172
vt 0.441481 0.538324
vt 0.441380 0.498214
vt 0.357833 0.621143
vt 0.371552 0.580779
vt 0.381160 0.591304
vt 0.372168 0.455272
vt 0.347494 0.471891
vt 0.336531 0.498549
vt 0.336686 0.538680
vt 0.325972 0.586171
vt 0.430221 0.471638
vt 0.405458 0.455176
vt 0.424779 0.560660
vt 0.353546 0.560920
vt 0.230453 0.678181
vt 0.311843 0.766554
vt 0.460192 0.204298
vt 0.311368 0.205642
vt 0.470289 0.765103
vt 0.550025 0.675219
vt 0.622157 0.395642
vt 0.571485 0.277175
vt 0.201505 0.280655
vt 0.153105 0.400043
vt 0.154744 0.578984
vt 0.765859 0.601408
vt 0.715618 0.591646
vt 0.451353 0.981439
vt 0.335169 0.982670
vt 0.342552 0.923421
vt 0.442680 0.922699
vt 0.623879 0.574610
vt 0.537487 0.558397
vt 0.536393 0.445061
vt 0.339883 0.324915
vt 0.270403 0.372322
vt 0.288889 0.623761
vt 0.340270 0.679584
vt 0.433977 0.324074
vt 0.440239 0.678673
vt 0.490578 0.621895
vt 0.504343 0.370147
vt 0.355222 0.813277
vt 0.427772 0.812630
vt 0.413467 0.708764
vt 0.395930 0.581593
vt 0.403608 0.572927
vt 0.422091 0.484187
vt 0.401852 0.470937
vt 0.367597 0.709169
vt 0.382761 0.581714
vt 0.431595 0.538382
vt 0.431301 0.505751
vt 0.374791 0.471183
vt 0.354797 0.484808
vt 0.360175 0.557145
vt 0.374927 0.573185
vt 0.239774 0.447828
vt 0.240807 0.561158
vt 0.346307 0.539168
vt 0.345987 0.506541
vt 0.418059 0.556616
vn 0.2784 -0.4614 -0.8424
vn -0.2899 -0.1662 -0.9425
vn 0.2784 0.1454 -0.9494
vn -0.1330 0.1515 -0.9795
vn -0.1330 -0.4773 -0.8686
vn 0.2517 -0.4850 -0.8375
vn -0.3861 0.4076 0.8275
vn 0.5013 0.1503 0.8521
vn 0.0000 0.7059 0.7084
vn -0.3861 -0.1000 0.9170
vn 0.4047 -0.3026 0.8629
vn -0.4489 0.1552 0.8800
vn 0.4964 -0.5464 0.6746
vn -0.2913 -0.5753 0.7643
vn -0.2913 0.8020 0.5214
vn 0.5503 0.6990 0.4567
vn -0.6901 0.1257 0.7127
vn 0.5503 -0.5006 0.6682
vn -0.5866 -0.2625 0.7662
vn 0.0000 0.8905 0.4550
vn 0.7399 0.1168 0.6625
vn -0.5866 0.5087 0.6302
vn 0.5497 0.6998 0.4563
vn 0.0000 -0.6812 0.7321
vn 0.5497 -0.5015 0.6681
vn 0.4964 0.7442 0.4470
vn -0.1916 0.1704 0.9666
vn 0.1892 0.3728 0.9084
vn -0.0889 0.3791 0.9211
vn -0.0889 -0.0412 0.9952
vn 0.1711 -0.0560 0.9837
vn 0.1711 0.3890 0.9052
vn 0.4043 0.5802 0.7070
vn 0.0000 -0.4210 0.9071
vn 0.4043 -0.3034 0.8628
vn 0.3655 0.6134 0.7001
vn 0.3655 -0.3370 0.8676
vn -0.2006 -0.3261 0.9238
vn -0.2006 0.6224 0.7566
vn 0.4047 0.5795 0.7074
vn 0.0000 0.3846 0.9231
vn -0.1380 0.0805 0.9872
vn 0.1583 -0.0038 0.9874
vn -0.1592 0.1714 0.9723
vn 0.1583 0.3413 0.9265
vn -0.0740 0.3455 0.9355
vn 0.1892 -0.0396 0.9811
vn -0.1660 0.0610 0.9842
vn 0.0000 0.4252 0.9051
vn 0.2196 0.1694 0.9608
vn -0.1660 0.2793 0.9458
vn 0.1891 0.3732 0.9083
vn 0.0000 -0.0900 0.9959
vn 0.1891 -0.0401 0.9811
vn -0.1334 0.2591 0.9566
vn 0.1768 0.1709 0.9693
vn 0.0000 0.3779 0.9259
vn -0.1334 0.0837 0.9875
vn 0.1532 0.0021 0.9882
vn -0.1539 0.1716 0.9731
vn 0.1828 0.1707 0.9682
vn -0.1380 0.2619 0.9552
vn 0.1582 0.3416 0.9264
vn 0.0000 -0.0457 0.9990
vn 0.1582 -0.0041 0.9874
vn 0.1432 0.3549 0.9239
vn 0.1432 -0.0175 0.9895
vn -0.0740 -0.0047 0.9972
vn 0.1756 -0.0243 0.9842
vn 0.0000 -0.0706 0.9975
vn 0.1756 0.3595 0.9165
vn -0.1537 0.2717 0.9500
vn 0.2035 0.1700 0.9642
vn 0.0000 0.4075 0.9132
vn 0.1531 0.3363 0.9292
vn 0.0000 -0.0384 0.9993
vn 0.1531 0.0017 0.9882
vn 0.1386 0.3492 0.9268
vn 0.1386 -0.0111 0.9903
vn -0.0716 0.0013 0.9974
vn -0.0716 0.3399 0.9377
vn 0.1532 0.3360 0.9293
vn 0.0000 0.1736 0.9848
vn 0.1590 0.3742 0.9136
vn 0.1590 -0.0391 0.9865
vn -0.0824 -0.0252 0.9963
vn -0.0824 0.3644 0.9276
vn 0.1758 0.3591 0.9166
vn -0.1774 0.1709 0.9692
vn 0.1758 -0.0240 0.9841
vn -0.1537 0.0696 0.9857
vn 0.1165 -0.2980 -0.9474
vn -0.1163 -0.1725 -0.9781
vn 0.1165 -0.0440 -0.9922
vn -0.0543 -0.0436 -0.9976
vn -0.0543 -0.3002 -0.9523
vn 0.1054 -0.3080 -0.9455
vn -0.2506 -0.3303 -0.9100
vn 0.0000 0.2217 -0.9751
vn 0.3298 -0.1639 -0.9297
vn -0.2506 -0.0009 -0.9681
vn 0.2782 0.1460 -0.9494
vn 0.0000 -0.5418 -0.8405
vn 0.2782 -0.4619 -0.8422
vn 0.2517 0.1693 -0.9529
vn -0.0000 -0.0385 -0.9993
vn -0.0851 -0.2287 -0.9698
vn 0.0985 -0.2791 -0.9552
vn -0.0981 -0.1728 -0.9801
vn 0.0985 -0.0644 -0.9931
vn -0.0458 -0.0642 -0.9969
vn -0.1009 -0.2387 -0.9658
vn 0.0000 -0.0133 -0.9999
vn 0.1339 -0.1721 -0.9759
vn -0.1009 -0.1061 -0.9892
vn 0.1165 -0.0437 -0.9922
vn -0.0000 -0.3295 -0.9442
vn 0.1165 -0.2983 -0.9474
vn 0.1054 -0.0339 -0.9938
vn 0.0797 -0.0853 -0.9932
vn -0.0688 -0.1278 -0.9894
vn 0.0914 -0.1729 -0.9807
vn 0.0000 -0.0645 -0.9979
vn -0.0688 -0.2183 -0.9735
vn 0.0798 -0.2594 -0.9625
vn 0.1129 -0.1725 -0.9785
vn -0.0851 -0.1168 -0.9895
vn 0.0984 -0.0642 -0.9931
vn -0.0000 -0.3056 -0.9522
vn 0.0984 -0.2793 -0.9551
vn 0.0891 -0.0559 -0.9945
vn 0.0891 -0.2876 -0.9536
vn -0.0458 -0.2807 -0.9587
vn 0.0000 -0.1736 -0.9848
vn 0.0000 -0.2807 -0.9598
vn 0.0797 -0.2596 -0.9624
vn 0.0722 -0.0786 -0.9943
vn 0.0722 -0.2663 -0.9612
vn -0.0371 -0.2604 -0.9648
vn -0.0371 -0.0852 -0.9957
vn 0.0798 -0.0854 -0.9931
vn -0.0793 -0.1731 -0.9817
usemtl Material.001
s off
f 12/1/1 10/2/1 107/3/1 109/4/1
f 8/5/2 7/6/2 105/7/2 106/8/2
f 9/9/3 11/10/3 110/11/3 108/12/3
f 5/13/4 2/14/4 101/15/4 103/16/4
f 4/17/5 6/18/5 104/19/5 102/20/5
f 10/2/6 3/21/6 99/22/6 107/3/6
f 19/23/7 21/24/7 35/25/7 33/26/7
f 27/27/8 28/28/8 42/29/8 41/30/8
f 16/31/9 17/32/9 31/33/9 30/34/9
f 22/35/10 20/36/10 34/37/10 36/38/10
f 23/39/11 25/40/11 39/41/11 37/42/11
f 21/24/12 22/35/12 36/38/12 35/25/12
f 3/43/13 10/44/13 23/39/13 15/45/13
f 6/46/14 4/47/14 18/48/14 20/36/14
f 2/49/15 5/50/15 19/23/15 17/32/15
f 11/51/16 9/52/16 24/53/16 26/54/16
f 7/55/17 8/56/17 22/35/17 21/24/17
f 10/44/18 12/57/18 25/40/18 23/39/18
f 8/56/19 6/46/19 20/36/19 22/35/19
f 1/58/20 2/49/20 17/32/20 16/31/20
f 14/59/21 13/60/21 28/28/21 27/27/21
f 5/50/22 7/55/22 21/24/22 19/23/22
f 13/60/23 11/51/23 26/54/23 28/28/23
f 4/47/24 3/43/24 15/45/24 18/48/24
f 12/57/25 14/59/25 27/27/25 25/40/25
f 9/52/26 1/58/26 16/31/26 24/53/26
f 35/25/27 36/38/27 50/61/27 49/62/27
f 40/63/28 38/64/28 52/65/28 54/66/28
f 31/33/29 33/26/29 47/67/29 45/68/29
f 34/37/30 32/69/30 46/70/30 48/71/30
f 29/72/31 37/42/31 51/73/31 43/74/31
f 38/64/32 30/34/32 44/75/32 52/65/32
f 28/28/33 26/54/33 40/63/33 42/29/33
f 18/48/34 15/45/34 29/72/34 32/69/34
f 25/40/35 27/27/35 41/30/35 39/41/35
f 24/53/36 16/31/36 30/34/36 38/64/36
f 15/45/37 23/39/37 37/42/37 29/72/37
f 20/36/38 18/48/38 32/69/38 34/37/38
f 17/32/39 19/23/39 33/26/39 31/33/39
f 26/54/40 24/53/40 38/64/40 40/63/40
f 44/75/41 45/68/41 59/76/41 58/77/41
f 50/61/42 48/71/42 62/78/42 64/79/42
f 51/73/43 53/80/43 67/81/43 65/82/43
f 49/62/44 50/61/44 64/79/44 63/83/44
f 54/66/45 52/65/45 66/84/45 68/85/45
f 45/68/46 47/67/46 61/86/46 59/76/46
f 37/42/47 39/41/47 53/80/47 51/73/47
f 36/38/48 34/37/48 48/71/48 50/61/48
f 30/34/49 31/33/49 45/68/49 44/75/49
f 41/30/50 42/29/50 56/87/50 55/88/50
f 33/26/51 35/25/51 49/62/51 47/67/51
f 42/29/52 40/63/52 54/66/52 56/87/52
f 32/69/53 29/72/53 43/74/53 46/70/53
f 39/41/54 41/30/54 55/88/54 53/80/54
f 61/86/55 63/83/55 77/89/55 75/90/55
f 69/91/56 70/92/56 84/93/56 83/94/56
f 58/77/57 59/76/57 73/95/57 72/96/57
f 64/79/58 62/78/58 76/97/58 78/98/58
f 65/82/59 67/81/59 81/99/59 79/100/59
f 63/83/60 64/79/60 78/98/60 77/89/60
f 55/88/61 56/87/61 70/92/61 69/91/61
f 47/67/62 49/62/62 63/83/62 61/86/62
f 56/87/63 54/66/63 68/85/63 70/92/63
f 46/70/64 43/74/64 57/101/64 60/102/64
f 53/80/65 55/88/65 69/91/65 67/81/65
f 52/65/66 44/75/66 58/77/66 66/84/66
f 43/74/67 51/73/67 65/82/67 57/101/67
f 48/71/68 46/70/68 60/102/68 62/78/68
f 81/99/69 83/94/69 97/103/69 95/104/69
f 74/105/70 71/106/70 85/107/70 88/108/70
f 84/93/71 82/109/71 96/110/71 98/111/71
f 75/90/72 77/89/72 91/112/72 89/113/72
f 83/94/73 84/93/73 98/111/73 97/103/73
f 72/96/74 73/95/74 87/114/74 86/115/74
f 70/92/75 68/85/75 82/109/75 84/93/75
f 60/102/76 57/101/76 71/106/76 74/105/76
f 67/81/77 69/91/77 83/94/77 81/99/77
f 66/84/78 58/77/78 72/96/78 80/116/78
f 57/101/79 65/82/79 79/100/79 71/106/79
f 62/78/80 60/102/80 74/105/80 76/97/80
f 59/76/81 61/86/81 75/90/81 73/95/81
f 68/85/82 66/84/82 80/116/82 82/109/82
f 86/115/83 87/114/83 88/108/83 85/107/83
f 88/108/83 87/114/83 89/113/83 90/117/83
f 90/117/83 89/113/83 91/112/83 92/118/83
f 86/115/83 85/107/83 93/119/83 94/120/83
f 94/120/83 93/119/83 95/104/83 96/110/83
f 96/110/83 95/104/83 97/103/83 98/111/83
f 80/116/84 72/96/84 86/115/84 94/120/84
f 71/106/85 79/100/85 93/119/85 85/107/85
f 76/97/86 74/105/86 88/108/86 90/117/86
f 73/95/87 75/90/87 89/113/87 87/114/87
f 82/109/88 80/116/88 94/120/88 96/110/88
f 77/89/89 78/98/89 92/118/89 91/112/89
f 79/100/90 81/99/90 95/104/90 93/119/90
f 78/98/91 76/97/91 90/117/91 92/118/91
f 109/4/92 107/3/92 121/121/92 123/122/92
f 106/8/93 105/7/93 119/123/93 120/124/93
f 108/12/94 110/11/94 124/125/94 122/126/94
f 103/16/95 101/15/95 115/127/95 117/128/95
f 102/20/96 104/19/96 118/129/96 116/130/96
f 107/3/97 99/22/97 113/131/97 121/121/97
f 6/18/98 8/5/98 106/8/98 104/19/98
f 2/14/99 1/132/99 100/133/99 101/15/99
f 13/134/100 14/135/100 111/136/100 112/137/100
f 7/6/101 5/13/101 103/16/101 105/7/101
f 11/10/102 13/134/102 112/137/102 110/11/102
f 3/21/103 4/17/103 102/20/103 99/22/103
f 14/135/104 12/1/104 109/4/104 111/136/104
f 1/132/105 9/9/105 108/12/105 100/133/105
f 115/127/106 114/138/106 128/139/106 129/140/106
f 118/129/107 120/124/107 134/141/107 132/142/107
f 123/122/108 121/121/108 135/143/108 137/144/108
f 120/124/109 119/123/109 133/145/109 134/141/109
f 122/126/110 124/125/110 138/146/110 136/147/110
f 117/128/111 115/127/111 129/140/111 131/148/111
f 104/19/112 106/8/112 120/124/112 118/129/112
f 101/15/113 100/133/113 114/138/113 115/127/113
f 112/137/114 111/136/114 125/149/114 126/150/114
f 105/7/115 103/16/115 117/128/115 119/123/115
f 110/11/116 112/137/116 126/150/116 124/125/116
f 99/22/117 102/20/117 116/130/117 113/131/117
f 111/136/118 109/4/118 123/122/118 125/149/118
f 100/133/119 108/12/119 122/126/119 114/138/119
f 138/146/120 140/151/120 154/152/120 152/153/120
f 133/145/121 131/148/121 145/154/121 147/155/121
f 140/151/122 139/156/122 153/157/122 154/152/122
f 129/140/123 128/139/123 142/158/123 143/159/123
f 132/142/124 134/141/124 148/160/124 146/161/124
f 137/144/125 135/143/125 149/162/125 151/163/125
f 126/150/126 125/149/126 139/156/126 140/151/126
f 119/123/127 117/128/127 131/148/127 133/145/127
f 124/125/128 126/150/128 140/151/128 138/146/128
f 113/131/129 116/130/129 130/164/129 127/165/129
f 125/149/130 123/122/130 137/144/130 139/156/130
f 114/138/131 122/126/131 136/147/131 128/139/131
f 121/121/132 113/131/132 127/165/132 135/143/132
f 116/130/133 118/129/133 132/142/133 130/164/133
f 142/158/134 141/166/134 144/167/134 143/159/134
f 144/167/134 146/161/134 145/154/134 143/159/134
f 146/161/134 148/160/134 147/155/134 145/154/134
f 142/158/134 150/168/134 149/162/134 141/166/134
f 150/168/134 152/153/134 151/163/134 149/162/134
f 152/153/134 154/152/134 153/157/134 151/163/134
f 127/165/135 130/164/135 144/167/135 141/166/135
f 139/156/136 137/144/136 151/163/136 153/157/136
f 128/139/137 136/147/137 150/168/137 142/158/137
f 135/143/138 127/165/138 141/166/138 149/162/138
f 130/164/139 132/142/139 146/161/139 144/167/139
f 131/148/140 129/140/140 143/159/140 145/154/140
f 136/147/141 138/146/141 152/153/141 150/168/141
f 134/141/142 133/145/142 147/155/142 148/160/142
