# Blender v2.81 (sub 16) OBJ File: 'SEED.blend'
# www.blender.org
mtllib seedsT.mtl
o SEED_Circle
v -0.004050 0.734437 0.148993
v -0.003917 0.729153 0.240624
v -0.003853 0.692250 0.285411
v -0.003772 0.644359 0.341391
v -0.003617 0.555258 0.448093
v -0.003483 0.431964 0.540705
v -0.003383 0.292286 0.610064
v -0.003317 0.141534 0.655614
v -0.003278 -0.012705 0.682693
v -0.003262 -0.161834 0.693941
v -0.003275 -0.301408 0.684968
v -0.003320 -0.427713 0.653675
v -0.003400 -0.537546 0.598315
v -0.003522 -0.628322 0.514172
v -0.003686 -0.697973 0.400437
v -0.003887 -0.739552 0.261637
v -0.004108 -0.750703 0.108599
v -0.004328 -0.731249 -0.043606
v -0.004525 -0.682187 -0.179941
v -0.004684 -0.606457 -0.289722
v -0.004798 -0.511241 -0.368806
v -0.004870 -0.398561 -0.418114
v -0.004905 -0.270742 -0.442495
v -0.004907 -0.130887 -0.443868
v -0.004879 0.017411 -0.424530
v -0.004828 0.169950 -0.389107
v -0.004750 0.318003 -0.335430
v -0.004639 0.453704 -0.258581
v -0.004496 0.571782 -0.159404
v -0.004335 0.654951 -0.048015
v -0.004250 0.699728 0.010485
v -0.004182 0.734142 0.057212
v -0.003977 0.731425 0.199600
v -0.003877 0.709614 0.268547
v -0.003850 0.663101 0.287212
v -0.003695 0.606240 0.394220
v -0.003550 0.493603 0.494706
v -0.003433 0.362112 0.575844
v -0.003351 0.216916 0.632615
v -0.003299 0.063813 0.668016
v -0.003271 -0.087667 0.687401
v -0.003269 -0.231812 0.689254
v -0.003298 -0.364475 0.669184
v -0.003359 -0.482336 0.626570
v -0.003459 -0.582376 0.557565
v -0.003602 -0.662740 0.459006
v -0.003785 -0.718802 0.332516
v -0.003997 -0.745144 0.185738
v -0.004219 -0.740959 0.031876
v -0.004429 -0.706678 -0.113252
v -0.004607 -0.643823 -0.236508
v -0.004743 -0.558220 -0.330553
v -0.004835 -0.454577 -0.394018
v -0.004887 -0.334574 -0.430162
v -0.004906 -0.201016 -0.442992
v -0.004892 -0.057185 -0.433306
v -0.004852 0.093018 -0.405715
v -0.004788 0.243970 -0.362044
v -0.004695 0.385866 -0.297465
v -0.004568 0.512751 -0.209299
v -0.004414 0.619760 -0.102838
v -0.004255 0.670720 0.007102
v -0.004224 0.716150 0.028268
v -0.004123 0.734180 0.098299
v -0.128720 0.822853 0.151578
v -0.128571 0.816925 0.254359
v -0.128499 0.775532 0.304596
v -0.128408 0.721813 0.367388
v -0.128235 0.621870 0.487075
v -0.128085 0.483572 0.590956
v -0.127972 0.326897 0.668755
v -0.127899 0.157801 0.719848
v -0.127855 -0.015206 0.750223
v -0.127836 -0.182483 0.762839
v -0.127851 -0.339041 0.752774
v -0.127902 -0.480715 0.717673
v -0.127991 -0.603914 0.655577
v -0.128128 -0.705737 0.561195
v -0.128312 -0.783863 0.433620
v -0.128537 -0.830501 0.277929
v -0.128786 -0.843010 0.106269
v -0.129032 -0.821189 -0.064458
v -0.129253 -0.766156 -0.217383
v -0.129431 -0.681211 -0.340523
v -0.129560 -0.574408 -0.429230
v -0.129640 -0.448016 -0.484538
v -0.129679 -0.304644 -0.511886
v -0.129681 -0.147770 -0.513426
v -0.129650 0.018574 -0.491735
v -0.129593 0.189675 -0.452001
v -0.129506 0.355744 -0.391793
v -0.129381 0.507958 -0.305592
v -0.129220 0.640405 -0.194346
v -0.129039 0.733694 -0.069404
v -0.128945 0.783920 -0.003784
v -0.128869 0.822521 0.048628
v -0.128638 0.819474 0.208343
v -0.128526 0.795009 0.285680
v -0.128496 0.742836 0.306617
v -0.128322 0.679055 0.426646
v -0.128159 0.552712 0.539360
v -0.128028 0.405221 0.630371
v -0.127936 0.242356 0.694050
v -0.127878 0.070623 0.733759
v -0.127847 -0.099291 0.755504
v -0.127844 -0.260977 0.757582
v -0.127877 -0.409782 0.735069
v -0.127946 -0.541985 0.687270
v -0.128058 -0.654199 0.609868
v -0.128217 -0.744343 0.499316
v -0.128422 -0.807227 0.357433
v -0.128660 -0.836775 0.192795
v -0.128910 -0.832080 0.020209
v -0.129145 -0.793627 -0.142579
v -0.129345 -0.723123 -0.280834
v -0.129498 -0.627104 -0.386323
v -0.129601 -0.510848 -0.457510
v -0.129659 -0.376243 -0.498053
v -0.129680 -0.226433 -0.512443
v -0.129664 -0.065099 -0.501579
v -0.129619 0.103381 -0.470631
v -0.129549 0.272703 -0.421646
v -0.129444 0.431865 -0.349208
v -0.129301 0.574191 -0.250313
v -0.129128 0.694221 -0.130898
v -0.128950 0.751382 -0.007579
v -0.128916 0.802340 0.016163
v -0.128802 0.822565 0.094715
vt 0.456914 0.957553
vt 0.603622 0.852651
vt 0.268415 0.950573
vt 0.880712 0.797099
vt 0.868218 0.790507
vt 0.873240 0.786399
vt 0.867852 0.851705
vt 0.857845 0.860773
vt 0.855880 0.853302
vt 0.873572 0.804301
vt 0.860632 0.800394
vt 0.864170 0.795452
vt 0.873805 0.870165
vt 0.860055 0.868264
vt 0.871346 0.864170
vt 0.868975 0.812929
vt 0.855903 0.811876
vt 0.858057 0.806154
vt 0.879633 0.881558
vt 0.866200 0.882534
vt 0.876345 0.876140
vt 0.920890 0.908272
vt 0.917443 0.921498
vt 0.917002 0.908365
vt 0.866428 0.822835
vt 0.853617 0.824752
vt 0.854605 0.818343
vt 0.887206 0.891559
vt 0.874545 0.895442
vt 0.883078 0.886912
vt 0.924011 0.908279
vt 0.930175 0.918528
vt 0.927092 0.920310
vt 0.865701 0.833768
vt 0.853661 0.838688
vt 0.853496 0.831749
vt 0.896044 0.899852
vt 0.884968 0.906390
vt 0.891440 0.896144
vt 0.927444 0.905769
vt 0.933755 0.914564
vt 0.932046 0.917032
vt 0.866839 0.845562
vt 0.854681 0.846016
vt 0.904984 0.903758
vt 0.896115 0.913882
vt 0.900448 0.902581
vt 0.932250 0.900697
vt 0.943515 0.907815
vt 0.938553 0.911890
vt 0.869617 0.857870
vt 0.907680 0.907222
vt 0.902701 0.917987
vt 0.906166 0.906024
vt 0.940695 0.892995
vt 0.953411 0.896288
vt 0.948743 0.902523
vt 0.862982 0.875425
vt 0.909959 0.908498
vt 0.912121 0.921278
vt 0.907835 0.920841
vt 0.947885 0.882535
vt 0.961127 0.882868
vt 0.957673 0.889915
vt 0.870178 0.889054
vt 0.922773 0.921027
vt 0.953155 0.870801
vt 0.966351 0.868271
vt 0.964161 0.875786
vt 0.879584 0.901034
vt 0.926130 0.906978
vt 0.956482 0.858236
vt 0.969405 0.853026
vt 0.968255 0.860750
vt 0.890722 0.910712
vt 0.928280 0.903236
vt 0.958364 0.839203
vt 0.970324 0.845333
vt 0.958213 0.845396
vt 0.900770 0.915696
vt 0.936482 0.897360
vt 0.957834 0.827332
vt 0.970509 0.830497
vt 0.958493 0.833052
vt 0.904680 0.919309
vt 0.944356 0.887774
vt 0.955534 0.816510
vt 0.968591 0.816575
vt 0.957076 0.821635
vt 0.913056 0.908453
vt 0.950602 0.876685
vt 0.951495 0.807074
vt 0.964401 0.804015
vt 0.953906 0.811454
vt 0.954861 0.864562
vt 0.945493 0.799155
vt 0.957877 0.793218
vt 0.948916 0.802699
vt 0.957321 0.851797
vt 0.937249 0.792909
vt 0.948746 0.784451
vt 0.941790 0.795578
vt 0.970509 0.837936
vt 0.932367 0.790238
vt 0.930054 0.775869
vt 0.936939 0.777934
vt 0.969706 0.823558
vt 0.920925 0.787297
vt 0.915123 0.773784
vt 0.922777 0.774230
vt 0.966669 0.810304
vt 0.908343 0.786962
vt 0.899662 0.774974
vt 0.907341 0.773784
vt 0.961356 0.798603
vt 0.895953 0.789200
vt 0.885260 0.779298
vt 0.892173 0.776582
vt 0.953571 0.788801
vt 0.885090 0.793782
vt 0.878798 0.782367
vt 0.943101 0.781107
vt 0.876592 0.800365
vt 0.926796 0.788744
vt 0.870743 0.808267
vt 0.914708 0.787102
vt 0.867297 0.817558
vt 0.902099 0.788065
vt 0.865641 0.828079
vt 0.890390 0.791492
vt 0.865855 0.839549
vt 0.280671 0.982006
vt 0.299338 0.995342
vt 0.326937 0.997143
vt 0.360982 0.999505
vt 0.395107 0.999667
vt 0.422764 0.999913
vt 0.442366 0.987993
vt 0.454444 0.977057
vt 0.494119 0.947303
vt 0.531254 0.923977
vt 0.569646 0.892056
vt 0.637186 0.813230
vt 0.663808 0.767824
vt 0.689811 0.722395
vt 0.708215 0.672737
vt 0.726921 0.623091
vt 0.023882 0.597060
vt 0.738609 0.571416
vt 0.016047 0.544662
vt 0.751773 0.520647
vt 0.006673 0.493059
vt 0.758174 0.470493
vt 0.003999 0.442568
vt 0.765770 0.420953
vt 0.765644 0.373741
vt 0.765770 0.326803
vt 0.757891 0.283755
vt 0.750203 0.240604
vt 0.734354 0.202739
vt 0.717758 0.164430
vt 0.692320 0.132555
vt 0.665154 0.099816
vt 0.629581 0.074312
vt 0.591758 0.048114
vt 0.547030 0.031188
vt 0.500312 0.014188
vt 0.449567 0.007153
vt 0.397987 0.000087
vt 0.346026 0.003320
vt 0.294900 0.006583
vt 0.247052 0.020081
vt 0.201195 0.033653
vt 0.161538 0.056982
vt 0.124177 0.079785
vt 0.094664 0.110426
vt 0.066939 0.140333
vt 0.047555 0.177309
vt 0.028949 0.213898
vt 0.018091 0.256363
vt 0.007050 0.298710
vt 0.003705 0.345528
vt 0.000087 0.392602
vt 0.038865 0.647953
vt 0.053546 0.698836
vt 0.076119 0.746063
vt 0.099310 0.793314
vt 0.129866 0.835109
vt 0.160835 0.876918
vt 0.196761 0.911591
vt 0.232069 0.937599
vt 0.269435 0.970206
vn -1.0000 0.0000 0.0014
vn -0.5867 0.6624 0.4659
vn -0.4648 -0.2137 0.8592
vn -0.5708 0.5180 0.6370
vn -0.4667 -0.3035 0.8307
vn -0.5424 0.3317 0.7719
vn -0.4765 -0.4289 0.7674
vn -0.5785 -0.8143 -0.0476
vn -0.5129 0.1627 0.8429
vn -0.4939 -0.5568 0.6679
vn -0.5392 -0.6904 -0.4823
vn -0.4880 0.0109 0.8728
vn -0.5149 -0.6534 0.5549
vn -0.1913 -0.0606 -0.9797
vn -0.4724 -0.1029 0.8753
vn -0.5475 -0.8043 0.2309
vn -0.5307 -0.6877 -0.4954
vn -0.4656 -0.1866 0.8651
vn -0.4975 -0.6370 0.5889
vn -0.4965 -0.5238 -0.6922
vn -0.4665 -0.2990 0.8324
vn -0.5784 -0.8158 0.0016
vn -0.4795 -0.3946 -0.7838
vn -0.4773 -0.4367 0.7625
vn -0.5784 -0.8145 -0.0443
vn -0.4690 -0.2534 -0.8461
vn -0.4946 -0.5607 0.6641
vn -0.4992 -0.6040 -0.6212
vn -0.4681 -0.1394 -0.8726
vn -0.5293 -0.7136 0.4589
vn -0.5482 -0.7906 -0.2727
vn -0.4750 -0.0552 -0.8783
vn -0.1884 -0.1137 0.9755
vn -0.5166 -0.6223 -0.5881
vn -0.4905 0.0583 -0.8695
vn -0.5379 -0.7156 0.4456
vn -0.4958 -0.5197 -0.6957
vn -0.5154 0.2082 -0.8313
vn -0.5784 -0.8157 0.0050
vn -0.4787 -0.3866 -0.7882
vn -0.5446 0.3731 -0.7511
vn -0.4692 -0.2579 -0.8446
vn -0.5726 0.5519 -0.6063
vn -0.4673 -0.1667 -0.8682
vn -0.5880 0.6867 -0.4276
vn -0.4727 -0.0775 -0.8778
vn -0.5932 0.7699 -0.2352
vn -0.4898 0.0536 -0.8702
vn -0.5934 0.8028 -0.0583
vn -0.5147 0.2044 -0.8327
vn -0.5931 0.7986 0.1023
vn -0.5461 0.3820 -0.7456
vn -0.5926 0.7593 0.2688
vn -0.5740 0.5626 -0.5949
vn -0.5873 0.6695 0.4549
vn -0.5885 0.6932 -0.4161
vn -0.5723 0.5294 0.6263
vn -0.5933 0.7728 -0.2254
vn -0.5439 0.3408 0.7668
vn -0.5934 0.8029 -0.0570
vn -0.5123 0.1588 0.8440
vn -0.5931 0.7984 0.1036
vn -0.4873 0.0062 0.8732
vn -0.5925 0.7559 0.2785
vn -0.4701 -0.1251 0.8737
usemtl Material.001
s off
f 62/1/1 60/2/1 35/3/1
f 51/4/2 84/5/2 115/6/2
f 25/7/3 121/8/3 89/9/3
f 52/10/4 85/11/4 116/12/4
f 58/13/5 90/14/5 26/15/5
f 53/16/6 86/17/6 117/18/6
f 59/19/7 91/20/7 27/21/7
f 33/22/8 65/23/8 1/24/8
f 54/25/9 87/26/9 118/27/9
f 60/28/10 92/29/10 28/30/10
f 2/31/11 98/32/11 66/33/11
f 55/34/12 88/35/12 119/36/12
f 61/37/13 93/38/13 29/39/13
f 3/40/14 99/41/14 67/42/14
f 56/43/15 89/9/15 120/44/15
f 62/45/16 94/46/16 30/47/16
f 4/48/17 100/49/17 68/50/17
f 26/15/18 121/8/18 57/51/18
f 63/52/19 95/53/19 31/54/19
f 5/55/20 101/56/20 69/57/20
f 27/21/21 122/58/21 58/13/21
f 32/59/22 128/60/22 96/61/22
f 6/62/23 102/63/23 70/64/23
f 28/30/24 123/65/24 59/19/24
f 2/31/25 97/66/25 33/22/25
f 7/67/26 103/68/26 71/69/26
f 29/39/27 124/70/27 60/28/27
f 34/71/28 67/42/28 98/32/28
f 8/72/29 104/73/29 72/74/29
f 30/47/30 125/75/30 61/37/30
f 35/76/31 68/50/31 99/41/31
f 41/77/32 73/78/32 9/79/32
f 31/54/33 126/80/33 62/45/33
f 36/81/34 69/57/34 100/49/34
f 42/82/35 74/83/35 10/84/35
f 32/59/36 127/85/36 63/52/36
f 37/86/37 70/64/37 101/56/37
f 43/87/38 75/88/38 11/89/38
f 64/90/39 65/23/39 128/60/39
f 38/91/40 71/69/40 102/63/40
f 44/92/41 76/93/41 12/94/41
f 39/95/42 72/74/42 103/68/42
f 45/96/43 77/97/43 13/98/43
f 9/79/44 104/73/44 40/99/44
f 46/100/45 78/101/45 14/102/45
f 10/84/46 105/103/46 41/77/46
f 15/104/47 111/105/47 79/106/47
f 11/89/48 106/107/48 42/82/48
f 16/108/49 112/109/49 80/110/49
f 12/94/50 107/111/50 43/87/50
f 17/112/51 113/113/51 81/114/51
f 13/98/52 108/115/52 44/92/52
f 18/116/53 114/117/53 82/118/53
f 14/102/54 109/119/54 45/96/54
f 19/120/55 115/6/55 83/121/55
f 15/104/56 110/122/56 46/100/56
f 20/123/57 116/12/57 84/5/57
f 16/108/58 111/105/58 47/124/58
f 21/125/59 117/18/59 85/11/59
f 17/112/60 112/109/60 48/126/60
f 22/127/61 118/27/61 86/17/61
f 18/116/62 113/113/62 49/128/62
f 23/129/63 119/36/63 87/26/63
f 19/120/64 114/117/64 50/130/64
f 24/131/65 120/44/65 88/35/65
f 34/132/1 2/133/1 33/134/1
f 33/134/1 1/135/1 35/3/1
f 1/135/1 64/136/1 62/1/1
f 35/3/1 1/135/1 62/1/1
f 64/136/1 32/137/1 63/138/1
f 63/138/1 31/139/1 62/1/1
f 62/1/1 30/140/1 61/141/1
f 61/141/1 29/142/1 62/1/1
f 29/142/1 60/2/1 62/1/1
f 60/2/1 28/143/1 59/144/1
f 59/144/1 27/145/1 58/146/1
f 58/146/1 26/147/1 8/148/1
f 26/147/1 57/149/1 40/150/1
f 57/149/1 25/151/1 9/152/1
f 25/151/1 56/153/1 41/154/1
f 56/153/1 24/155/1 55/156/1
f 55/156/1 23/157/1 54/158/1
f 54/158/1 22/159/1 53/160/1
f 53/160/1 21/161/1 52/162/1
f 52/162/1 20/163/1 51/164/1
f 51/164/1 19/165/1 50/166/1
f 50/166/1 18/167/1 49/168/1
f 49/168/1 17/169/1 48/170/1
f 48/170/1 16/171/1 47/172/1
f 47/172/1 15/173/1 46/174/1
f 46/174/1 14/175/1 45/176/1
f 45/176/1 13/177/1 44/178/1
f 44/178/1 12/179/1 43/180/1
f 43/180/1 11/181/1 42/182/1
f 42/182/1 10/183/1 41/154/1
f 41/154/1 9/152/1 25/151/1
f 9/152/1 40/150/1 57/149/1
f 40/150/1 8/148/1 26/147/1
f 8/148/1 39/184/1 58/146/1
f 39/184/1 7/185/1 38/186/1
f 38/186/1 6/187/1 37/188/1
f 37/188/1 5/189/1 35/3/1
f 5/189/1 36/190/1 35/3/1
f 36/190/1 4/191/1 35/3/1
f 35/3/1 3/192/1 34/132/1
f 34/132/1 33/134/1 35/3/1
f 64/136/1 63/138/1 62/1/1
f 60/2/1 59/144/1 38/186/1
f 59/144/1 58/146/1 38/186/1
f 41/154/1 56/153/1 42/182/1
f 56/153/1 55/156/1 42/182/1
f 55/156/1 54/158/1 49/168/1
f 42/182/1 55/156/1 48/170/1
f 54/158/1 53/160/1 51/164/1
f 53/160/1 52/162/1 51/164/1
f 51/164/1 50/166/1 54/158/1
f 50/166/1 49/168/1 54/158/1
f 49/168/1 48/170/1 55/156/1
f 48/170/1 47/172/1 43/180/1
f 47/172/1 46/174/1 43/180/1
f 48/170/1 43/180/1 42/182/1
f 46/174/1 45/176/1 44/178/1
f 44/178/1 43/180/1 46/174/1
f 39/184/1 38/186/1 58/146/1
f 38/186/1 37/188/1 60/2/1
f 37/188/1 35/3/1 60/2/1
f 51/4/2 20/123/2 84/5/2
f 25/7/3 57/51/3 121/8/3
f 52/10/4 21/125/4 85/11/4
f 58/13/5 122/58/5 90/14/5
f 53/16/6 22/127/6 86/17/6
f 59/19/7 123/65/7 91/20/7
f 33/22/8 97/66/8 65/23/8
f 54/25/9 23/129/9 87/26/9
f 60/28/10 124/70/10 92/29/10
f 2/31/11 34/71/11 98/32/11
f 55/34/12 24/131/12 88/35/12
f 61/37/13 125/75/13 93/38/13
f 3/40/14 35/76/14 99/41/14
f 56/43/15 25/7/15 89/9/15
f 62/45/16 126/80/16 94/46/16
f 4/48/17 36/81/17 100/49/17
f 26/15/18 90/14/18 121/8/18
f 63/52/19 127/85/19 95/53/19
f 5/55/20 37/86/20 101/56/20
f 27/21/21 91/20/21 122/58/21
f 32/59/22 64/90/22 128/60/22
f 6/62/23 38/91/23 102/63/23
f 28/30/24 92/29/24 123/65/24
f 2/31/25 66/33/25 97/66/25
f 7/67/26 39/95/26 103/68/26
f 29/39/27 93/38/27 124/70/27
f 34/71/28 3/40/28 67/42/28
f 8/72/29 40/99/29 104/73/29
f 30/47/30 94/46/30 125/75/30
f 35/76/31 4/48/31 68/50/31
f 41/77/32 105/103/32 73/78/32
f 31/54/33 95/53/33 126/80/33
f 36/81/34 5/55/34 69/57/34
f 42/82/35 106/107/35 74/83/35
f 32/59/36 96/61/36 127/85/36
f 37/86/37 6/62/37 70/64/37
f 43/87/38 107/111/38 75/88/38
f 64/90/39 1/24/39 65/23/39
f 38/91/40 7/67/40 71/69/40
f 44/92/41 108/115/41 76/93/41
f 39/95/42 8/72/42 72/74/42
f 45/96/43 109/119/43 77/97/43
f 9/79/44 73/78/44 104/73/44
f 46/100/45 110/122/45 78/101/45
f 10/84/46 74/83/46 105/103/46
f 15/104/47 47/124/47 111/105/47
f 11/89/48 75/88/48 106/107/48
f 16/108/49 48/126/49 112/109/49
f 12/94/50 76/93/50 107/111/50
f 17/112/51 49/128/51 113/113/51
f 13/98/52 77/97/52 108/115/52
f 18/116/53 50/130/53 114/117/53
f 14/102/54 78/101/54 109/119/54
f 19/120/55 51/4/55 115/6/55
f 15/104/56 79/106/56 110/122/56
f 20/123/57 52/10/57 116/12/57
f 16/108/58 80/110/58 111/105/58
f 21/125/59 53/16/59 117/18/59
f 17/112/60 81/114/60 112/109/60
f 22/127/61 54/25/61 118/27/61
f 18/116/62 82/118/62 113/113/62
f 23/129/63 55/34/63 119/36/63
f 19/120/64 83/121/64 114/117/64
f 24/131/65 56/43/65 120/44/65
